<svg width="301" height="109" viewBox="0 0 301 109" fill="none" xmlns="http://www.w3.org/2000/svg">
<path d="M4.96 46.288C5.77067 46.1173 6.66667 46.0107 7.648 45.968C8.65067 45.9253 9.46133 45.904 10.08 45.904C10.7627 45.904 11.5733 45.9253 12.512 45.968C13.4507 46.0107 14.3467 46.1173 15.2 46.288V90C14.3467 90.1493 13.4507 90.2453 12.512 90.288C11.5733 90.352 10.7627 90.384 10.08 90.384C9.46133 90.384 8.65067 90.352 7.648 90.288C6.66667 90.2453 5.77067 90.1493 4.96 90V46.288ZM35.2595 90.192H30.9395C29.1048 90.192 27.6542 89.6587 26.5875 88.592C25.5208 87.5253 24.9875 86.064 24.9875 84.208V46.288L25.4355 45.872H29.1795C31.1422 45.872 32.6462 46.384 33.6915 47.408C34.7368 48.4107 35.2595 50.0533 35.2595 52.336V90.192ZM52.3475 81.36C52.3475 84.6027 51.8142 86.8853 50.7475 88.208C49.7022 89.5307 47.9102 90.192 45.3715 90.192H30.9395L25.4355 82.768C28.2302 82.2773 30.9928 81.9253 33.7235 81.712C36.4755 81.4773 38.9822 81.36 41.2435 81.36H52.3475ZM65.742 68.112C65.742 69.7973 65.8273 71.5147 65.998 73.264C66.19 75.0133 66.5633 76.6347 67.118 78.128C67.694 79.6 68.5367 80.7947 69.646 81.712C70.7553 82.6293 72.238 83.088 74.094 83.088C75.95 83.088 77.422 82.6293 78.51 81.712C79.6193 80.7947 80.4513 79.6 81.006 78.128C81.582 76.6347 81.9553 75.0133 82.126 73.264C82.318 71.5147 82.414 69.7973 82.414 68.112C82.414 66.4267 82.318 64.72 82.126 62.992C81.9553 61.2427 81.582 59.632 81.006 58.16C80.4513 56.6667 79.6193 55.472 78.51 54.576C77.422 53.6587 75.95 53.2 74.094 53.2C72.238 53.2 70.7553 53.6587 69.646 54.576C68.5367 55.472 67.694 56.6667 67.118 58.16C66.5633 59.632 66.19 61.2427 65.998 62.992C65.8273 64.72 65.742 66.4267 65.742 68.112ZM55.054 68.112C55.054 63.5467 55.7367 59.5573 57.102 56.144C58.4887 52.7307 60.59 50.0747 63.406 48.176C66.222 46.2773 69.7847 45.328 74.094 45.328C78.4247 45.328 81.998 46.288 84.814 48.208C87.63 50.1067 89.7207 52.7627 91.086 56.176C92.4513 59.5893 93.134 63.568 93.134 68.112C93.134 72.6987 92.4407 76.7093 91.054 80.144C89.6673 83.5573 87.566 86.2133 84.75 88.112C81.9553 90.0107 78.4033 90.96 74.094 90.96C69.7633 90.96 66.19 90 63.374 88.08C60.558 86.16 58.4673 83.4933 57.102 80.08C55.7367 76.6453 55.054 72.656 55.054 68.112ZM98.2225 80.272C99.1185 80.8053 100.047 81.264 101.007 81.648C101.988 82.0107 102.98 82.192 103.983 82.192C106.308 82.192 107.844 81.488 108.591 80.08C109.337 78.672 109.711 76.7093 109.711 74.192V46.288C110.543 46.1173 111.449 46.0107 112.431 45.968C113.433 45.9253 114.244 45.904 114.863 45.904C115.545 45.904 116.356 45.9253 117.295 45.968C118.233 46.0107 119.129 46.1173 119.983 46.288V73.232C119.983 75.7493 119.769 78.0747 119.343 80.208C118.916 82.32 118.159 84.1547 117.071 85.712C115.983 87.2693 114.468 88.4853 112.527 89.36C110.607 90.2133 108.143 90.64 105.135 90.64C103.449 90.64 101.668 90.416 99.7905 89.968C97.9132 89.4987 96.2172 88.784 94.7025 87.824C94.8945 86.544 95.2998 85.2213 95.9185 83.856C96.5372 82.4907 97.3052 81.296 98.2225 80.272ZM136.867 68.112C136.867 69.7973 136.952 71.5147 137.123 73.264C137.315 75.0133 137.688 76.6347 138.243 78.128C138.819 79.6 139.662 80.7947 140.771 81.712C141.88 82.6293 143.363 83.088 145.219 83.088C147.075 83.088 148.547 82.6293 149.635 81.712C150.744 80.7947 151.576 79.6 152.131 78.128C152.707 76.6347 153.08 75.0133 153.251 73.264C153.443 71.5147 153.539 69.7973 153.539 68.112C153.539 66.4267 153.443 64.72 153.251 62.992C153.08 61.2427 152.707 59.632 152.131 58.16C151.576 56.6667 150.744 55.472 149.635 54.576C148.547 53.6587 147.075 53.2 145.219 53.2C143.363 53.2 141.88 53.6587 140.771 54.576C139.662 55.472 138.819 56.6667 138.243 58.16C137.688 59.632 137.315 61.2427 137.123 62.992C136.952 64.72 136.867 66.4267 136.867 68.112ZM126.179 68.112C126.179 63.5467 126.862 59.5573 128.227 56.144C129.614 52.7307 131.715 50.0747 134.531 48.176C137.347 46.2773 140.91 45.328 145.219 45.328C149.55 45.328 153.123 46.288 155.939 48.208C158.755 50.1067 160.846 52.7627 162.211 56.176C163.576 59.5893 164.259 63.568 164.259 68.112C164.259 72.6987 163.566 76.7093 162.179 80.144C160.792 83.5573 158.691 86.2133 155.875 88.112C153.08 90.0107 149.528 90.96 145.219 90.96C140.888 90.96 137.315 90 134.499 88.08C131.683 86.16 129.592 83.4933 128.227 80.08C126.862 76.6453 126.179 72.656 126.179 68.112ZM185.875 46.16C188.435 46.096 190.963 46.0427 193.459 46C195.976 45.936 198.365 45.904 200.627 45.904C203.613 45.904 206.227 46.32 208.467 47.152C210.707 47.9627 212.456 49.232 213.715 50.96C214.973 52.6667 215.603 54.864 215.603 57.552C215.603 59.1093 215.24 60.5707 214.515 61.936C213.811 63.3013 212.872 64.432 211.699 65.328C210.525 66.224 209.224 66.7573 207.795 66.928V65.904C209.523 65.9893 211.133 66.576 212.627 67.664C214.141 68.752 215.357 70.16 216.275 71.888C217.192 73.5947 217.651 75.44 217.651 77.424C217.651 80.4107 216.989 82.864 215.667 84.784C214.365 86.6827 212.52 88.0907 210.131 89.008C207.741 89.9253 204.915 90.384 201.651 90.384C199.176 90.384 196.605 90.352 193.939 90.288C191.293 90.2453 188.605 90.192 185.875 90.128L185.427 89.68V46.608L185.875 46.16ZM195.507 83.216C196.552 83.1947 197.544 83.184 198.483 83.184C199.421 83.1627 200.232 83.152 200.915 83.152C202.664 83.152 203.997 82.832 204.915 82.192C205.853 81.5307 206.493 80.7307 206.835 79.792C207.197 78.832 207.379 77.904 207.379 77.008C207.379 76.0693 207.187 75.12 206.803 74.16C206.44 73.1787 205.779 72.3573 204.819 71.696C203.88 71.0347 202.557 70.704 200.851 70.704H191.667V63.44H200.115C201.565 63.44 202.685 63.184 203.475 62.672C204.264 62.1387 204.819 61.4773 205.139 60.688C205.459 59.8987 205.619 59.088 205.619 58.256C205.619 57.4027 205.459 56.592 205.139 55.824C204.819 55.056 204.253 54.4267 203.443 53.936C202.653 53.424 201.544 53.168 200.115 53.168C199.56 53.168 198.856 53.168 198.003 53.168C197.149 53.1467 196.317 53.1253 195.507 53.104V83.216ZM234.563 46.288C235.374 46.16 236.344 46.064 237.475 46C238.627 45.936 239.63 45.904 240.483 45.904C241.294 45.904 242.275 45.936 243.427 46C244.6 46.064 245.592 46.1813 246.403 46.352L260.163 89.328C259.459 89.7333 258.542 90.0427 257.411 90.256C256.302 90.4693 255.267 90.576 254.307 90.576C252.686 90.576 251.416 90.2027 250.499 89.456C249.582 88.688 248.814 87.2053 248.195 85.008L243.619 68.784C243.128 66.992 242.552 64.88 241.891 62.448C241.251 60.016 240.654 57.744 240.099 55.632H239.715C239.502 56.8053 239.214 58.1173 238.851 59.568C238.488 61.0187 238.104 62.4693 237.699 63.92C237.315 65.3493 236.952 66.6507 236.611 67.824L230.083 90.064C229.443 90.2133 228.76 90.3093 228.035 90.352C227.31 90.416 226.542 90.448 225.731 90.448C224.963 90.448 224.088 90.384 223.107 90.256C222.147 90.128 221.379 89.9573 220.803 89.744L220.419 89.2L234.563 46.288ZM235.331 80.848C235.032 80.848 234.68 80.848 234.275 80.848C233.891 80.8267 233.507 80.816 233.123 80.816C232.739 80.7947 232.387 80.784 232.067 80.784H226.691L229.795 72.816H234.531C234.83 72.816 235.171 72.816 235.555 72.816C235.939 72.7947 236.323 72.784 236.707 72.784C237.091 72.7627 237.432 72.752 237.731 72.752H242.403C242.723 72.752 243.064 72.7627 243.427 72.784C243.811 72.784 244.195 72.7947 244.579 72.816C244.984 72.816 245.336 72.816 245.635 72.816H250.531L253.123 80.784H247.715C247.416 80.784 247.064 80.7947 246.659 80.816C246.275 80.816 245.88 80.8267 245.475 80.848C245.091 80.848 244.75 80.848 244.451 80.848H235.331ZM296.912 59.824C296.912 61.872 296.517 63.696 295.728 65.296C294.938 66.8747 293.946 68.1867 292.752 69.232C291.557 70.2773 290.352 71.0453 289.136 71.536C290.33 71.9627 291.322 72.6987 292.112 73.744C292.922 74.7893 293.573 76.016 294.064 77.424L295.984 82.832C296.346 83.8347 296.784 84.7413 297.296 85.552C297.829 86.3413 298.448 87.0133 299.152 87.568C298.49 88.4213 297.53 89.136 296.272 89.712C295.034 90.288 293.722 90.576 292.336 90.576C290.501 90.576 289.168 90.0853 288.336 89.104C287.504 88.1013 286.746 86.6187 286.064 84.656L283.76 77.968C283.397 76.8587 282.832 75.92 282.064 75.152C281.296 74.3627 280.058 73.968 278.352 73.968H271.536V66.32C272.368 66.2773 273.392 66.2347 274.608 66.192C275.845 66.128 277.018 66.0853 278.128 66.064C279.237 66.0213 280.016 66 280.464 66C282.085 66 283.322 65.712 284.176 65.136C285.05 64.5387 285.648 63.7707 285.968 62.832C286.309 61.8933 286.48 60.8907 286.48 59.824C286.48 58.7147 286.309 57.6907 285.968 56.752C285.648 55.8133 285.05 55.0667 284.176 54.512C283.322 53.936 282.085 53.648 280.464 53.648C279.802 53.648 279.077 53.648 278.288 53.648C277.498 53.6267 276.634 53.6053 275.696 53.584V90C274.842 90.1493 273.946 90.2453 273.008 90.288C272.09 90.352 271.29 90.384 270.608 90.384C270.01 90.384 269.221 90.352 268.24 90.288C267.258 90.2453 266.362 90.1493 265.552 90V46.608L266 46.16C268.73 46.096 271.354 46.0427 273.872 46C276.41 45.936 278.896 45.904 281.328 45.904C284.293 45.904 286.949 46.3947 289.296 47.376C291.642 48.336 293.498 49.84 294.864 51.888C296.229 53.936 296.912 56.5813 296.912 59.824Z" fill="white"/>
<path d="M61.5515 14.08C61.7015 14.39 61.8015 14.7 61.8715 15.01C61.9415 15.34 61.9815 15.67 61.9715 16C60.5915 16.28 59.2215 16.57 57.8415 16.87C56.7115 17.15 55.5815 17.44 54.4515 17.73C54.2915 17.44 54.1815 17.13 54.1015 16.8C54.0315 16.5 53.9915 16.17 54.0015 15.83C55.1615 15.57 56.3215 15.32 57.4715 15.07C58.8315 14.74 60.1915 14.41 61.5515 14.09V14.08ZM55.3615 13.48C55.2215 12.9 55.2315 12.45 55.3815 12.15C55.5315 11.85 55.9015 11.63 56.4715 11.5C56.8215 11.42 57.1815 11.34 57.5315 11.26L57.7115 11.37C58.6215 15.38 59.5415 19.4 60.4515 23.41C60.5215 23.72 60.6615 23.95 60.8615 24.1C61.0615 24.25 61.3415 24.28 61.7015 24.2C62.2415 24.08 62.7815 23.96 63.3215 23.84C63.5515 24.21 63.7215 24.62 63.8215 25.09C63.8415 25.18 63.8615 25.28 63.8815 25.38C63.9015 25.48 63.9015 25.58 63.8815 25.66C63.4915 25.8 63.0615 25.95 62.5915 26.09C62.1215 26.23 61.6515 26.36 61.1815 26.46C60.3215 26.66 59.6215 26.6 59.0715 26.28C58.5215 25.96 58.1415 25.39 57.9515 24.55C57.0815 20.86 56.2215 17.17 55.3515 13.49L55.3615 13.48Z" fill="white"/>
<path d="M69.2114 24.61C68.8514 24.76 68.4114 24.89 67.9114 24.99C67.4514 25.09 67.0214 25.14 66.6014 25.16C65.3814 19.46 64.1714 13.75 62.9514 8.05C62.9914 7.99 63.0414 7.93 63.0814 7.86C63.4314 7.79 63.7814 7.71 64.1414 7.64C64.7314 7.52 65.1514 7.56 65.4214 7.78C65.6814 7.99 65.8714 8.39 65.9914 8.97C67.0614 14.18 68.1414 19.4 69.2114 24.61V24.61ZM75.7014 20.68C75.7814 21.1 75.8814 21.49 76.0114 21.85C76.1414 22.21 76.3114 22.52 76.5214 22.76C76.3614 22.96 76.1414 23.14 75.8614 23.31C75.5814 23.47 75.2814 23.59 74.9514 23.65C74.4214 23.75 74.0214 23.68 73.7614 23.44C73.5014 23.2 73.3114 22.81 73.2114 22.26C72.8314 20.32 72.4514 18.37 72.0714 16.43C71.9214 15.67 71.7114 15.14 71.4514 14.83C71.1814 14.53 70.7614 14.43 70.1814 14.55C69.7814 14.63 69.3814 14.81 68.9614 15.08C68.5414 15.36 68.1614 15.71 67.8114 16.13C67.4614 16.55 67.2114 17.02 67.0614 17.55C66.8914 16.73 66.7214 15.91 66.5514 15.09C66.9814 14.38 67.5414 13.73 68.2414 13.15C68.9414 12.57 69.7414 12.19 70.6214 12.01C71.4014 11.86 72.0714 11.91 72.6214 12.16C73.1814 12.41 73.6314 12.81 73.9714 13.36C74.3114 13.91 74.5514 14.56 74.6914 15.29C75.0314 17.08 75.3614 18.88 75.7014 20.67V20.68Z" fill="white"/>
<path d="M79.7114 17.42C79.6014 16.79 79.4914 16.17 79.3814 15.54C81.3114 15.2 83.2514 14.87 85.1914 14.56L85.1414 14.25C85.0614 13.73 84.9014 13.26 84.6814 12.85C84.4614 12.44 84.1514 12.13 83.7614 11.92C83.3714 11.71 82.8914 11.66 82.3314 11.75C81.5214 11.89 80.9714 12.31 80.6914 13.03C80.4114 13.75 80.3714 14.68 80.5714 15.83L80.7114 16.63C80.8314 17.35 81.0214 17.98 81.2714 18.53C81.5214 19.08 81.8714 19.49 82.3214 19.76C82.7714 20.03 83.3614 20.1 84.0914 19.98C84.7014 19.88 85.2714 19.7 85.8014 19.44C86.3314 19.18 86.8414 18.89 87.3214 18.56C87.5614 18.73 87.7814 18.97 87.9714 19.26C88.1614 19.55 88.3014 19.83 88.3814 20.09C87.8614 20.58 87.2114 21.02 86.4414 21.39C85.6714 21.76 84.8714 22.02 84.0314 22.16C83.0514 22.32 82.2114 22.29 81.5014 22.07C80.7914 21.85 80.1914 21.48 79.7114 20.97C79.2314 20.46 78.8414 19.85 78.5414 19.15C78.2414 18.45 78.0214 17.7 77.8814 16.9C77.6714 15.72 77.6714 14.63 77.8814 13.63C78.1014 12.63 78.5514 11.79 79.2314 11.11C79.9114 10.43 80.8514 9.98999 82.0314 9.78999C83.1114 9.60999 84.0614 9.68999 84.8814 10.02C85.6914 10.35 86.3514 10.87 86.8514 11.57C87.3514 12.27 87.6714 13.1 87.8214 14.05C87.8814 14.45 87.9214 14.8 87.9414 15.08C87.9514 15.36 87.9414 15.68 87.9214 16.04C85.1914 16.46 82.4614 16.91 79.7414 17.39L79.7114 17.42Z" fill="white"/>
<path d="M106.382 12.8C106.512 14.03 106.422 15.13 106.122 16.11C105.822 17.09 105.302 17.88 104.562 18.5C103.832 19.11 102.882 19.49 101.722 19.63C100.552 19.77 99.5415 19.63 98.6915 19.2C97.8315 18.77 97.1415 18.12 96.6215 17.24C96.1015 16.36 95.7515 15.32 95.5915 14.12C95.4315 12.9 95.4815 11.8 95.7715 10.81C96.0615 9.82 96.5715 9.01 97.3115 8.38C98.0515 7.75 99.0215 7.36 100.222 7.21C101.422 7.06 102.472 7.21 103.342 7.65C104.212 8.09 104.912 8.76 105.422 9.65C105.932 10.54 106.252 11.59 106.382 12.81V12.8ZM98.4215 13.74C98.5115 14.46 98.6715 15.13 98.9015 15.75C99.1215 16.37 99.4515 16.85 99.8615 17.2C100.282 17.55 100.822 17.68 101.502 17.6C102.172 17.52 102.662 17.26 102.982 16.83C103.302 16.39 103.492 15.85 103.572 15.19C103.642 14.53 103.642 13.84 103.562 13.12C103.482 12.4 103.322 11.72 103.102 11.1C102.882 10.47 102.562 9.98 102.142 9.63C101.722 9.28 101.172 9.14 100.492 9.22C99.8015 9.3 99.2915 9.57 98.9715 10.01C98.6515 10.45 98.4515 11.01 98.3915 11.67C98.3315 12.33 98.3415 13.02 98.4315 13.75L98.4215 13.74Z" fill="white"/>
<path d="M108.111 7.89C108.151 7.64 108.251 7.36 108.421 7.06C108.581 6.76 108.761 6.53 108.951 6.38C109.851 6.45 110.561 6.79 111.051 7.39C111.551 7.99 111.871 8.78 112.031 9.76C112.291 12.54 112.551 15.33 112.811 18.11C112.431 18.22 111.981 18.3 111.481 18.34C110.971 18.39 110.511 18.4 110.101 18.37C109.831 15.66 109.561 12.96 109.291 10.25C109.231 9.61 109.071 9.09 108.831 8.7C108.591 8.31 108.351 8.04 108.111 7.88V7.89ZM116.051 5.91C116.081 6.25 116.051 6.67 115.991 7.16C115.921 7.65 115.781 8.08 115.581 8.46C115.401 8.43 115.221 8.42 115.051 8.42C114.871 8.42 114.691 8.42 114.511 8.42C114.061 8.46 113.671 8.58 113.351 8.79C113.021 9 112.751 9.26 112.531 9.57C112.311 9.88 112.131 10.22 112.001 10.59C111.861 10.96 111.751 11.33 111.661 11.69C111.521 11.55 111.371 11.4 111.231 11.26C111.201 10.68 111.231 10.09 111.311 9.49C111.391 8.89 111.561 8.32 111.811 7.8C112.061 7.27 112.421 6.84 112.881 6.49C113.341 6.14 113.941 5.94 114.661 5.88C114.911 5.86 115.151 5.85 115.361 5.86C115.581 5.86 115.811 5.89 116.061 5.92L116.051 5.91Z" fill="white"/>
<path d="M122.501 17.33C122.111 17.43 121.661 17.5 121.151 17.53C120.641 17.57 120.181 17.56 119.791 17.53C119.571 14.65 119.361 11.76 119.141 8.88C119.111 8.47 119.011 8.16 118.831 7.96C118.661 7.76 118.361 7.68 117.941 7.71C117.841 7.71 117.741 7.73 117.641 7.73C117.541 7.43 117.481 7.12 117.451 6.81C117.441 6.66 117.431 6.5 117.441 6.34C117.441 6.18 117.461 6.01 117.491 5.84C117.811 5.77 118.131 5.72 118.431 5.68C118.731 5.64 118.981 5.61 119.171 5.6C119.301 5.6 119.421 5.58 119.551 5.57C120.211 5.52 120.751 5.68 121.161 6.06C121.571 6.43 121.801 6.97 121.841 7.66C122.061 10.89 122.281 14.12 122.501 17.35V17.33ZM117.871 2.53C117.841 2.12 117.891 1.74 118.031 1.4C118.191 1.3 118.411 1.21 118.681 1.13C118.951 1.05 119.221 1 119.481 0.980005C119.731 0.960005 120.001 0.980005 120.301 1.01C120.601 1.05 120.831 1.11001 120.981 1.19001C121.061 1.34001 121.131 1.51 121.191 1.72C121.251 1.92 121.291 2.11 121.301 2.29C121.331 2.71 121.271 3.09001 121.141 3.43001C121.011 3.53001 120.801 3.61001 120.501 3.69001C120.211 3.77001 119.941 3.81 119.691 3.83C119.431 3.85 119.161 3.84 118.871 3.81C118.581 3.78 118.361 3.72001 118.201 3.64001C118.011 3.32001 117.911 2.95 117.871 2.53V2.53Z" fill="white"/>
<path d="M124.972 11.26C124.882 9.85001 125.042 8.66 125.462 7.71C125.872 6.76 126.442 6.03 127.152 5.53C127.862 5.03 128.632 4.76 129.452 4.72C130.202 4.68 130.852 4.76 131.402 4.95C131.952 5.14 132.432 5.39 132.832 5.71C133.232 6.02 133.572 6.34 133.862 6.68C133.762 7.44 133.652 8.19 133.552 8.95C133.082 8.28 132.522 7.75 131.872 7.35C131.222 6.95 130.592 6.77 129.992 6.8C129.512 6.82 129.102 7 128.752 7.32C128.402 7.65 128.142 8.12 127.972 8.75C127.792 9.38 127.732 10.16 127.782 11.1C127.852 12.48 128.112 13.47 128.562 14.06C129.002 14.65 129.512 14.93 130.082 14.9C130.722 14.87 131.322 14.64 131.892 14.21C132.452 13.78 132.892 13.24 133.212 12.58C133.372 13.25 133.542 13.91 133.702 14.58C133.492 14.97 133.182 15.35 132.782 15.72C132.382 16.1 131.922 16.42 131.382 16.69C130.842 16.96 130.262 17.11 129.622 17.14C128.672 17.19 127.862 16.97 127.202 16.49C126.542 16.01 126.022 15.32 125.652 14.43C125.282 13.53 125.062 12.48 124.982 11.27L124.972 11.26ZM135.752 5.97C135.502 6.2 135.332 6.52 135.242 6.91C135.152 7.31 135.112 7.73 135.132 8.19C135.212 10.52 135.302 12.85 135.382 15.18C135.412 16.13 135.402 16.93 135.342 17.58C135.282 18.23 135.172 18.78 135.012 19.22C134.852 19.67 134.652 20.05 134.402 20.37C134.022 20.88 133.492 21.3 132.802 21.62C132.112 21.94 131.312 22.12 130.392 22.17C129.642 22.21 128.892 22.17 128.122 22.05C127.352 21.94 126.682 21.78 126.112 21.59C126.102 21.25 126.142 20.89 126.252 20.51C126.362 20.12 126.502 19.81 126.692 19.56C127.212 19.76 127.782 19.91 128.392 20.02C129.002 20.12 129.552 20.16 130.032 20.14C130.812 20.1 131.412 19.93 131.822 19.62C132.232 19.31 132.502 18.92 132.632 18.43C132.762 17.94 132.822 17.4 132.792 16.81C132.672 13.86 132.542 10.9 132.422 7.95C132.392 7.15 132.542 6.44 132.892 5.82C133.242 5.2 133.842 4.8 134.692 4.63C134.912 4.75 135.132 4.94 135.342 5.21C135.552 5.48 135.682 5.73 135.742 5.96L135.752 5.97Z" fill="white"/>
<path d="M142.112 16.48C141.722 16.56 141.272 16.6 140.752 16.62C140.242 16.63 139.782 16.61 139.392 16.54C139.322 13.65 139.242 10.76 139.172 7.87C139.162 7.45 139.072 7.14 138.912 6.93C138.752 6.72 138.452 6.62 138.042 6.64H137.742C137.662 6.35 137.612 6.04 137.602 5.72C137.602 5.57 137.602 5.41 137.612 5.25C137.622 5.09 137.652 4.92 137.682 4.75C138.012 4.7 138.322 4.66 138.622 4.64C138.922 4.62 139.172 4.6 139.362 4.6C139.492 4.6 139.612 4.6 139.742 4.6C140.402 4.58 140.932 4.77 141.322 5.17C141.712 5.56 141.912 6.11 141.922 6.8C141.982 10.04 142.042 13.27 142.102 16.51L142.112 16.48ZM138.222 1.47C138.212 1.05 138.282 0.68 138.432 0.35C138.602 0.26 138.822 0.18 139.092 0.11C139.362 0.04 139.632 0.01 139.902 0C140.152 0 140.422 0.02 140.722 0.07C141.022 0.12 141.242 0.19 141.392 0.28C141.462 0.43 141.522 0.61 141.572 0.82C141.622 1.03 141.652 1.22 141.652 1.39C141.652 1.81 141.582 2.18 141.432 2.52C141.302 2.61 141.082 2.69 140.782 2.75C140.482 2.81 140.212 2.85 139.972 2.85C139.712 2.85 139.442 2.84 139.152 2.79C138.872 2.74 138.652 2.68 138.492 2.59C138.322 2.26 138.232 1.88 138.222 1.47V1.47Z" fill="white"/>
<path d="M146.871 4.43002C147.441 4.43002 147.851 4.59002 148.091 4.93002C148.331 5.27002 148.451 5.73002 148.451 6.33002C148.451 9.69002 148.471 13.05 148.481 16.41C148.101 16.48 147.651 16.52 147.131 16.52C146.621 16.52 146.161 16.49 145.761 16.42C145.721 12.48 145.681 8.53002 145.651 4.59002L145.811 4.43002C146.161 4.43002 146.521 4.43002 146.871 4.43002V4.43002ZM155.571 13.85C155.571 14.27 155.591 14.68 155.651 15.06C155.711 15.44 155.821 15.77 155.981 16.05C155.771 16.21 155.521 16.35 155.211 16.45C154.911 16.55 154.591 16.6 154.261 16.6C153.721 16.6 153.351 16.45 153.131 16.16C152.921 15.87 152.811 15.45 152.821 14.9L152.871 8.94002C152.871 8.17002 152.781 7.61002 152.581 7.26002C152.381 6.91002 151.991 6.73002 151.391 6.73002C151.001 6.73002 150.571 6.82002 150.101 7.00002C149.631 7.18002 149.191 7.45002 148.771 7.79002C148.351 8.13002 148.011 8.55002 147.751 9.04002C147.751 8.20002 147.751 7.37002 147.741 6.53002C148.311 5.92002 148.991 5.40002 149.781 4.97002C150.571 4.54002 151.431 4.33002 152.341 4.33002C153.121 4.33002 153.761 4.52002 154.251 4.88002C154.741 5.24002 155.101 5.72002 155.331 6.32002C155.561 6.92002 155.661 7.60002 155.651 8.35002C155.621 10.18 155.601 12.01 155.571 13.85V13.85Z" fill="white"/>
<path d="M163.411 15.79C163.441 15.49 163.541 15.16 163.731 14.8C163.921 14.44 164.121 14.16 164.351 13.96C164.871 14.25 165.411 14.52 166.001 14.76C166.581 15 167.171 15.13 167.771 15.16C168.411 15.19 168.921 15.08 169.311 14.84C169.701 14.59 169.901 14.27 169.921 13.86C169.941 13.54 169.831 13.24 169.591 12.96C169.361 12.68 169.001 12.44 168.511 12.24C168.041 12.05 167.571 11.85 167.101 11.66C166.541 11.44 166.031 11.16 165.561 10.84C165.101 10.52 164.731 10.13 164.461 9.68002C164.191 9.23002 164.061 8.70002 164.091 8.09002C164.121 7.35002 164.331 6.71002 164.741 6.19002C165.151 5.66002 165.701 5.27002 166.401 5.01002C167.101 4.75002 167.881 4.63002 168.751 4.67002C169.451 4.70002 170.181 4.83002 170.961 5.05002C171.741 5.27002 172.381 5.51002 172.881 5.77002C172.881 6.10002 172.791 6.45002 172.611 6.82002C172.431 7.19002 172.221 7.47002 171.971 7.65002C171.531 7.43002 171.021 7.22002 170.441 7.02002C169.861 6.82001 169.261 6.70002 168.641 6.67002C168.131 6.65002 167.711 6.75001 167.391 6.97001C167.071 7.20001 166.901 7.51002 166.891 7.90002C166.881 8.21002 166.991 8.48002 167.221 8.70002C167.451 8.92002 167.811 9.13002 168.291 9.33002C168.791 9.54002 169.291 9.75002 169.801 9.95002C170.721 10.32 171.461 10.81 172.021 11.43C172.581 12.05 172.831 12.83 172.771 13.77C172.701 14.89 172.211 15.74 171.281 16.34C170.351 16.94 169.161 17.2 167.691 17.13C166.831 17.09 166.031 16.94 165.301 16.67C164.571 16.4 163.941 16.1 163.411 15.77V15.79Z" fill="white"/>
<path d="M182.331 5.82999C182.381 6.16999 182.391 6.49999 182.361 6.80999C182.331 7.13999 182.271 7.46999 182.171 7.77999C180.781 7.64999 179.381 7.51999 177.991 7.40999C176.831 7.34999 175.671 7.28999 174.511 7.23999C174.451 6.91999 174.421 6.58999 174.441 6.24999C174.461 5.93999 174.521 5.61999 174.631 5.28999C175.801 5.37999 176.981 5.47999 178.151 5.57999C179.541 5.65999 180.931 5.73999 182.321 5.82999H182.331ZM176.621 3.44999C176.661 2.84999 176.801 2.42999 177.031 2.17999C177.261 1.93999 177.671 1.82999 178.261 1.86999C178.621 1.89999 178.981 1.91999 179.341 1.94999C179.391 1.99999 179.431 2.04999 179.481 2.09999C179.181 6.20999 178.891 10.31 178.591 14.42C178.571 14.74 178.631 15 178.781 15.2C178.931 15.4 179.181 15.51 179.551 15.54C180.101 15.58 180.651 15.62 181.191 15.67C181.311 16.09 181.341 16.54 181.301 17.02C181.301 17.12 181.281 17.22 181.271 17.32C181.261 17.42 181.231 17.51 181.191 17.59C180.781 17.61 180.331 17.62 179.841 17.62C179.351 17.62 178.871 17.6 178.391 17.57C177.521 17.51 176.871 17.25 176.441 16.78C176.011 16.32 175.821 15.66 175.881 14.79C176.131 11.01 176.381 7.22999 176.631 3.44999H176.621Z" fill="white"/>
<path d="M194.191 12.95C194.051 14.18 193.731 15.23 193.221 16.12C192.711 17.01 192.031 17.67 191.181 18.12C190.331 18.56 189.331 18.72 188.171 18.61C187.001 18.5 186.051 18.14 185.301 17.53C184.561 16.92 184.021 16.14 183.701 15.17C183.381 14.2 183.271 13.11 183.371 11.9C183.471 10.67 183.771 9.60998 184.261 8.70998C184.751 7.80998 185.431 7.12998 186.291 6.66998C187.151 6.20998 188.181 6.03998 189.381 6.15998C190.591 6.27998 191.571 6.64998 192.331 7.26998C193.091 7.88998 193.621 8.68998 193.931 9.66998C194.241 10.65 194.321 11.75 194.181 12.96L194.191 12.95ZM186.221 12.14C186.151 12.87 186.161 13.56 186.251 14.21C186.341 14.86 186.541 15.41 186.881 15.83C187.211 16.26 187.721 16.51 188.391 16.57C189.061 16.64 189.601 16.49 190.001 16.13C190.401 15.77 190.711 15.28 190.931 14.66C191.141 14.03 191.291 13.36 191.361 12.64C191.431 11.92 191.431 11.22 191.351 10.56C191.271 9.89998 191.061 9.34998 190.731 8.91998C190.401 8.47998 189.891 8.22998 189.211 8.16998C188.521 8.09998 187.961 8.24998 187.551 8.60998C187.141 8.96998 186.831 9.46998 186.631 10.1C186.431 10.73 186.291 11.41 186.231 12.14H186.221Z" fill="white"/>
<path d="M196.931 8.52999C197.031 8.28999 197.181 8.03999 197.411 7.78999C197.631 7.52999 197.861 7.34999 198.071 7.23999C198.941 7.49999 199.551 7.98999 199.901 8.67999C200.251 9.37999 200.401 10.22 200.341 11.2C199.991 13.97 199.641 16.75 199.291 19.52C198.891 19.54 198.441 19.52 197.941 19.46C197.431 19.4 196.981 19.31 196.591 19.19C196.911 16.49 197.231 13.79 197.551 11.09C197.631 10.45 197.591 9.90999 197.441 9.47999C197.291 9.04999 197.111 8.72999 196.921 8.52999H196.931ZM205.121 8.30999C205.071 8.64999 204.961 9.04999 204.791 9.50999C204.621 9.96999 204.391 10.36 204.111 10.69C203.941 10.63 203.771 10.58 203.601 10.54C203.431 10.5 203.251 10.46 203.071 10.42C202.621 10.36 202.221 10.4 201.851 10.53C201.491 10.66 201.171 10.86 200.881 11.11C200.601 11.36 200.351 11.66 200.141 11.99C199.931 12.32 199.731 12.65 199.571 12.99C199.461 12.82 199.351 12.65 199.241 12.48C199.341 11.91 199.491 11.34 199.701 10.77C199.911 10.2 200.201 9.67999 200.561 9.22999C200.921 8.76999 201.361 8.41999 201.891 8.17999C202.421 7.93999 203.041 7.86999 203.761 7.95999C204.011 7.98999 204.241 8.03999 204.451 8.08999C204.661 8.13999 204.881 8.20999 205.121 8.29999V8.30999Z" fill="white"/>
<path d="M212.351 21.03C211.811 22.15 211.271 23.09 210.721 23.85C210.171 24.61 209.521 25.15 208.791 25.48C208.051 25.81 207.141 25.89 206.051 25.73C205.661 25.67 205.231 25.57 204.781 25.41C204.321 25.26 203.971 25.12 203.721 24.99C203.741 24.68 203.831 24.34 204.001 23.98C204.161 23.62 204.351 23.35 204.551 23.18C204.751 23.27 205.021 23.38 205.351 23.49C205.691 23.61 206.011 23.69 206.341 23.74C206.861 23.82 207.321 23.77 207.701 23.59C208.091 23.42 208.431 23.14 208.731 22.76C209.031 22.38 209.311 21.91 209.581 21.37C209.621 21.28 209.671 21.19 209.711 21.1C209.191 21 208.781 20.84 208.491 20.61C208.201 20.38 208.021 20 207.931 19.49C207.391 15.88 206.831 12.28 206.231 8.66999C206.561 8.58999 206.871 8.52999 207.181 8.50999C207.481 8.48999 207.751 8.48999 207.981 8.52999C208.301 8.57999 208.571 8.69999 208.781 8.88999C208.991 9.08999 209.131 9.41999 209.191 9.88999C209.471 11.75 209.731 13.6 209.991 15.46C210.041 15.82 210.091 16.23 210.131 16.67C210.171 17.11 210.211 17.54 210.241 17.95C210.271 18.36 210.301 18.72 210.321 19.02C210.331 19.14 210.401 19.2 210.511 19.22C211.881 16.05 213.281 12.89 214.701 9.73999C214.871 9.72999 215.071 9.73999 215.281 9.73999C215.501 9.75999 215.691 9.77999 215.881 9.80999C216.131 9.84999 216.381 9.89999 216.621 9.96999C216.861 10.03 217.091 10.13 217.301 10.24C217.321 10.3 217.351 10.35 217.371 10.41C215.661 13.93 213.981 17.46 212.331 21L212.351 21.03Z" fill="white"/>
<path d="M233.841 19.37C233.581 20.58 233.161 21.59 232.561 22.43C231.971 23.26 231.221 23.86 230.331 24.21C229.441 24.56 228.421 24.63 227.271 24.4C226.111 24.17 225.191 23.72 224.511 23.04C223.831 22.36 223.381 21.53 223.151 20.53C222.931 19.53 222.921 18.43 223.151 17.24C223.371 16.03 223.771 15 224.361 14.15C224.941 13.3 225.681 12.69 226.591 12.32C227.491 11.95 228.541 11.88 229.731 12.12C230.921 12.36 231.871 12.83 232.571 13.52C233.271 14.21 233.721 15.06 233.931 16.07C234.141 17.07 234.111 18.18 233.861 19.37H233.841ZM225.961 17.77C225.821 18.49 225.761 19.17 225.781 19.83C225.801 20.49 225.961 21.05 226.241 21.51C226.531 21.97 227.011 22.27 227.681 22.4C228.341 22.53 228.891 22.44 229.331 22.13C229.771 21.82 230.131 21.36 230.401 20.76C230.681 20.16 230.891 19.5 231.031 18.79C231.181 18.08 231.241 17.39 231.221 16.72C231.201 16.06 231.051 15.49 230.761 15.02C230.471 14.55 229.991 14.25 229.311 14.12C228.631 13.98 228.061 14.08 227.611 14.4C227.161 14.72 226.811 15.18 226.541 15.79C226.271 16.4 226.071 17.06 225.931 17.78L225.961 17.77Z" fill="white"/>
<path d="M239.751 14.6C241.301 14.93 242.851 15.28 244.401 15.63C244.401 15.79 244.381 15.96 244.361 16.11C244.341 16.27 244.311 16.43 244.271 16.59C244.231 16.75 244.191 16.9 244.131 17.06C244.071 17.22 244.011 17.37 243.941 17.52C242.401 17.13 240.871 16.76 239.321 16.39C238.181 16.15 237.031 15.92 235.891 15.69C235.891 15.35 235.921 15.03 235.991 14.7C236.061 14.39 236.161 14.09 236.311 13.77C237.461 14.03 238.601 14.3 239.741 14.58L239.751 14.6ZM238.201 15.4C238.271 14.83 238.331 14.28 238.381 13.74C238.431 13.2 238.501 12.68 238.611 12.2C238.771 11.5 239.061 10.9 239.501 10.41C239.941 9.92001 240.491 9.58001 241.151 9.38001C241.811 9.19001 242.561 9.18001 243.391 9.38001C243.981 9.52001 244.571 9.72001 245.151 9.98001C245.731 10.24 246.201 10.49 246.551 10.72C246.481 11.02 246.351 11.33 246.151 11.63C245.961 11.93 245.741 12.16 245.491 12.31C245.201 12.15 244.881 11.99 244.521 11.83C244.161 11.67 243.811 11.55 243.461 11.47C242.891 11.34 242.401 11.4 242.001 11.65C241.601 11.9 241.331 12.34 241.191 12.95C241.091 13.4 241.021 13.9 240.981 14.43C240.941 14.97 240.901 15.5 240.861 16.03C240.061 19.5 239.271 22.98 238.471 26.45C238.041 26.42 237.591 26.36 237.121 26.25C236.681 26.15 236.261 26.02 235.861 25.86C236.631 22.37 237.411 18.88 238.181 15.39L238.201 15.4Z" fill="white"/>
</svg>
